<svg version="1.1" id="Camada_1" xmlns="http://www.w3.org/2000/svg" x="0" y="0" viewBox="0 0 1000 253.1" style="enable-background:new 0 0 1000 253.1" xml:space="preserve"><style>.st1{opacity:1.200000e-02}.st1,.st12,.st14,.st15,.st16,.st17,.st19{fill-rule:evenodd;clip-rule:evenodd;fill:#fefffe;enable-background:new}.st2{opacity:4.000000e-03}.st2,.st20,.st3,.st4,.st6,.st8,.st9{fill-rule:evenodd;clip-rule:evenodd;fill:#fefffe;enable-background:new}.st3{opacity:1.000000e-02}.st4{opacity:1.100000e-02}.st6{opacity:8.000000e-03}.st8{opacity:6.000000e-03}.st9{opacity:1.600000e-02}.st12{opacity:9.000000e-03}.st14{opacity:1.300000e-02}.st15{opacity:7.000000e-03}.st16{opacity:1.500000e-02}.st17{opacity:1.400000e-02}.st19{opacity:2.400000e-02}.st20{opacity:2.000000e-02}</style><path d="M410.7 151.3c-1.2 1.3-1.6 3-1.2 5-1.1.9-1.5 2.1-1.2 3.7-1.1.9-1.5 2.1-1.2 3.7-1 .4-1.5 1.3-1.2 2.5-1 .4-1.5 1.3-1.2 2.5-1 .4-1.5 1.3-1.2 2.5-1 .4-1.5 1.3-1.2 2.5-.8 0-1.2.4-1.2 1.2-.8 0-1.2.4-1.2 1.2-1 .4-1.5 1.3-1.2 2.5-.8 0-1.2.4-1.2 1.2-.8 0-1.2.4-1.2 1.2-.8 0-1.2.4-1.2 1.2-.8 0-1.2.4-1.2 1.2-.8 0-1.2.4-1.2 1.2-.8 0-1.2.4-1.2 1.2-.8 0-1.2.4-1.2 1.2-.8 0-1.2.4-1.2 1.2-.8 0-1.2.4-1.2 1.2-1.2-.2-2.1.2-2.5 1.2-.8 0-1.2.4-1.2 1.2-1.2-.2-2.1.2-2.5 1.2-1.2-.2-2.1.2-2.5 1.2-.8 0-1.2.4-1.2 1.2-1.6-.3-2.8.1-3.7 1.2-1.2-.2-2.1.2-2.5 1.2-1.6-.3-2.8.1-3.7 1.2-2-.3-3.6.1-5 1.2-2.8-.4-5.3 0-7.4 1.2-13.2.2-25.6-2.7-37.2-8.7 0-.8-.4-1.2-1.2-1.2-10.6-6.8-18.4-15.9-23.6-27.3.2-1.2-.2-2.1-1.2-2.5.3-1.6-.1-2.8-1.2-3.7.3-1.6-.1-2.8-1.2-3.7-1.2-25.6-1.6-51.2-1.2-76.9h22.3c-.2 23.6 0 47.1.6 70.7.3 1.9.9 3.6 1.9 5-.2 1.2.2 2.1 1.2 2.5 1.8 5.7 5.1 10.2 9.9 13.6 0 .8.4 1.2 1.2 1.2 3.4 3.4 7.5 5.4 12.4 6.2 1.3 1.2 3 1.6 5 1.2 4.5 1.7 9.1 1.7 13.6 0 2 .3 3.6-.1 5-1.2 8.6-1.6 15.2-6.2 19.8-13.6 1.7-.6 2.6-1.8 2.5-3.7 1-.4 1.5-1.3 1.2-2.5 1-.4 1.5-1.3 1.2-2.5 1.6-3.4 2.6-7.1 3.1-11.2.6-48 .8-95.9.6-143.9h21.1c-.8 51.2-.8 101.7-.8 152.1zm-27.3 8.7c.1 1.9-.7 3.1-2.5 3.7-.1-1.8.8-3.1 2.5-3.7z" style="opacity:.916;fill-rule:evenodd;clip-rule:evenodd;fill:#fefffe;enable-background:new"/><path class="st1" d="M411.9 151.3c-.2-50.5 0-100.9.6-151.3 1.1 50.7.9 101.1-.6 151.3z"/><path class="st2" d="M469 74.4c1 .4 1.8 1 2.5 1.9-1.6.6-2.5 0-2.5-1.9z"/><path class="st3" d="M888.3 75.7c36.2-1.4 72.6-1.6 109.2-.6-35.7.2-71.2.8-106.7 1.9-.4-1.1-1.3-1.5-2.5-1.3z"/><path class="st4" d="M215.9 78.2c-6.2-1.7-12.4-1.7-18.6 0-2.1.2-4.2 0-6.2-.6 10.3-2.5 20.7-2.5 31 0-2 .5-4.1.8-6.2.6zm389.6-1.3c33.7-1.4 67.6-1.6 101.7-.6-33.9.6-67.8.8-101.7.6z"/><path class="st3" d="M888.3 75.7v1.2c-2.4-.4-4.4.1-6.2 1.2-1.7.2-3.4 0-5-.6 3.6-1.4 7.4-2 11.2-1.8z"/><path class="st4" d="M101.8 78.2c2.4-1.5 4.9-1.3 7.4.6-1.2.6-2.4.8-3.7.6-.9-1.1-2.1-1.5-3.7-1.2z"/><path d="M593.1 80.6c-1 .4-1.5 1.3-1.2 2.5-1 .4-1.5 1.3-1.2 2.5-1 .4-1.5 1.3-1.2 2.5-1 .4-1.5 1.3-1.2 2.5-1 .4-1.5 1.3-1.2 2.5-1 .4-1.5 1.3-1.2 2.5-1 .4-1.5 1.3-1.2 2.5-1 .4-1.5 1.3-1.2 2.5-1 .4-1.5 1.3-1.2 2.5-1 .4-1.5 1.3-1.2 2.5-1 .4-1.5 1.3-1.2 2.5-1 .4-1.5 1.3-1.2 2.5-1 .4-1.5 1.3-1.2 2.5-1 .4-1.5 1.3-1.2 2.5-1 .4-1.5 1.3-1.2 2.5-1 .4-1.5 1.3-1.2 2.5-1 .4-1.5 1.3-1.2 2.5-1 .4-1.5 1.3-1.2 2.5-1 .4-1.5 1.3-1.2 2.5-1 .4-1.5 1.3-1.2 2.5-1 .4-1.5 1.3-1.2 2.5-1 .4-1.5 1.3-1.2 2.5-1 .4-1.5 1.3-1.2 2.5-1 .4-1.5 1.3-1.2 2.5-1 .4-1.5 1.3-1.2 2.5-1 .4-1.5 1.3-1.2 2.5-1 .4-1.5 1.3-1.2 2.5-1 .4-1.5 1.3-1.2 2.5-1 .4-1.5 1.3-1.2 2.5-1 .4-1.5 1.3-1.2 2.5-1 .4-1.5 1.3-1.2 2.5-1 .4-1.5 1.3-1.2 2.5-1 .4-1.5 1.3-1.2 2.5-1 .4-1.5 1.3-1.2 2.5-1 .4-1.5 1.3-1.2 2.5-1 .4-1.5 1.3-1.2 2.5-1 .4-1.5 1.3-1.2 2.5-1 .4-1.5 1.3-1.2 2.5-1 .4-1.5 1.3-1.2 2.5-1 .4-1.5 1.3-1.2 2.5-1 .4-1.5 1.3-1.2 2.5-1 .4-1.5 1.3-1.2 2.5-1 .4-1.5 1.3-1.2 2.5-1 .4-1.5 1.3-1.2 2.5-1 .4-1.5 1.3-1.2 2.5-1 .4-1.5 1.3-1.2 2.5-1 .4-1.5 1.3-1.2 2.5-1.1 1-1.9 2.2-2.5 3.7h-24.8c-11.2-25.8-23.9-51-37.8-75.7-12.9 25-25.1 50.2-36.6 75.7-8.5.4-16.8 0-24.8-1.2 4.4-7 8.1-14.5 11.2-22.3 1-.4 1.5-1.3 1.2-2.5 1-.4 1.5-1.3 1.2-2.5 1-.4 1.5-1.3 1.2-2.5 1-.4 1.5-1.3 1.2-2.5 1-.4 1.5-1.3 1.2-2.5 1-.4 1.5-1.3 1.2-2.5 1-.4 1.5-1.3 1.2-2.5 1-.4 1.5-1.3 1.2-2.5 1-.4 1.5-1.3 1.2-2.5 1-.4 1.5-1.3 1.2-2.5 1-.4 1.5-1.3 1.2-2.5 1-.4 1.5-1.3 1.2-2.5 11.3-23.5 23.3-46.6 36-69.5 15.7 30.5 31.8 61.9 48.4 94.3.7 3.7 1.5 4.1 2.5 1.2 8.9-16.1 17.2-32.7 24.8-49.6 1-.4 1.5-1.3 1.2-2.5 1-.4 1.5-1.3 1.2-2.5 1-.4 1.5-1.3 1.2-2.5 1-.4 1.5-1.3 1.2-2.5 1-.4 1.5-1.3 1.2-2.5 1-.4 1.5-1.3 1.2-2.5 1-.4 1.5-1.3 1.2-2.5 1-.4 1.5-1.3 1.2-2.5 1-.4 1.5-1.3 1.2-2.5 3.9-8 8.1-16.1 12.4-24.2 7.8-.6 15.7-.8 23.6-.6-1.2.8-1.2 2-1.2 3.2zm-74.5 91.8c.8.4 1.7.8 2.5 1.2-1 2.9-1.8 2.5-2.5-1.2z" style="opacity:.911;fill-rule:evenodd;clip-rule:evenodd;fill:#fefefe;enable-background:new"/><path class="st6" d="M594.3 80.6c-.2-1.3 0-2.5.6-3.7.9 1.6.7 2.8-.6 3.7z"/><path d="M888.3 76.9h2.5c35.3-.4 70.8 0 106.7 1.2-.9 1.5-1.3 3.2-1.2 5-1 .4-1.5 1.3-1.2 2.5-.8 0-1.2.4-1.2 1.2-1.1.9-1.5 2.1-1.2 3.7-1 .4-1.5 1.3-1.2 2.5-1 .4-1.5 1.3-1.2 2.5-1 .4-1.5 1.3-1.2 2.5-.8 0-1.2.4-1.2 1.2-33.3-.4-66.4 0-99.2 1.2-2-.3-3.6.1-5 1.2-1.6-.3-2.8.1-3.7 1.2-1.2-.2-2.1.2-2.5 1.2-1.2-.2-2.1.2-2.5 1.2-1.2-.2-2.1.2-2.5 1.2-.8 0-1.2.4-1.2 1.2-3.7 1.2-6.2 3.7-7.4 7.4-.8 0-1.2.4-1.2 1.2-1 .4-1.5 1.3-1.2 2.5-1 .4-1.5 1.3-1.2 2.5-1 .4-1.5 1.3-1.2 2.5-1.1.9-1.5 2.1-1.2 3.7-1.2 1.3-1.6 3-1.2 5 1.5-.5 2.7-1.4 3.7-2.5 1.2.2 2.1-.2 2.5-1.2 1.2.2 2.1-.2 2.5-1.2 35.1-1.4 70.3-1.6 105.4-.6 2.6.7 5.1 1.7 7.4 3.1.8-.4 1.7-.8 2.5-1.2 1.2 1.7 2.4 3.4 3.7 5 0 .8.4 1.2 1.2 1.2 0 .8.4 1.2 1.2 1.2 0 .8.4 1.2 1.2 1.2 0 .8.4 1.2 1.2 1.2 0 .8.4 1.2 1.2 1.2.5 1.5 1.4 2.7 2.5 3.7 0 .8.4 1.2 1.2 1.2-.2 1.2.2 2.1 1.2 2.5-.2 1.2.2 2.1 1.2 2.5 1 7 1.4 14 1.2 21.1-1.2 1.3-1.6 3-1.2 5-1.1.9-1.5 2.1-1.2 3.7-1 .4-1.5 1.3-1.2 2.5-.8 0-1.2.4-1.2 1.2-1 .4-1.5 1.3-1.2 2.5-.8 0-1.2.4-1.2 1.2-.8 0-1.2.4-1.2 1.2-.8 0-1.2.4-1.2 1.2-.8 0-1.2.4-1.2 1.2-.8 0-1.2.4-1.2 1.2-2.8 1.2-5.3 2.9-7.4 5-1.2-.2-2.1.2-2.5 1.2-1.2-.2-2.1.2-2.5 1.2-2-.3-3.6.1-5 1.2-26.7-.1-53.6-.1-80.6 0-1.8-1.2-3.8-1.6-6.2-1.2-1.3-1.2-3-1.6-5-1.2-.4-1-1.3-1.5-2.5-1.2-6.9-3.5-13.6-7.6-19.8-12.4 0-.8-.4-1.2-1.2-1.2 0-.8-.4-1.2-1.2-1.2 0-.8-.4-1.2-1.2-1.2 0-.8-.4-1.2-1.2-1.2-1.3-1.7-2.5-3.4-3.7-5 0-.8-.4-1.2-1.2-1.2-1.4-3.1-3-6-5-8.7.2-1.2-.2-2.1-1.2-2.5-7.1-20.4-5-39.8 6.2-58.3.8 0 1.2-.4 1.2-1.2 1.6-2 3.3-4.1 5-6.2.8 0 1.2-.4 1.2-1.2.8 0 1.2-.4 1.2-1.2 4.6-3.3 9.1-6.7 13.6-9.9.8 0 1.2-.4 1.2-1.2 1.6.3 2.8-.1 3.7-1.2 1.2.2 2.1-.2 2.5-1.2 3.2-.3 6.1-1.1 8.7-2.5 1.7.5 3.8.1 5.5-1.1zm-31 50.9c0 1.7.8 2.5 2.5 2.5-1 1.1-2.2 1.9-3.7 2.5-.4-2 0-3.7 1.2-5zm105.4 22.3c1.9 1 4 1.8 6.2 2.5 0 .8.4 1.2 1.2 1.2 0 .8.4 1.2 1.2 1.2-.2 1.2.2 2.1 1.2 2.5 1.7 4.1 1.7 8.3 0 12.4-1.4 2.5-3.5 4.3-6.2 5.6-26.5.8-52.9.8-79.4 0-2.5-.6-5-1.2-7.4-1.9-1.3-1.5-2.9-2.3-5-2.5-1-1.1-2.2-1.9-3.7-2.5-1.7-2.5-3.7-4.5-6.2-6.2.5-4.7 2.6-8.4 6.2-11.2 30.7-1 61.3-1.5 91.9-1.1zm6.2 2.5v-1.2c2.5 0 3.7 1.2 3.7 3.7h-1.2c-.8 0-1.2-.4-1.2-1.2-.8-.1-1.3-.5-1.3-1.3z" style="opacity:.862;fill-rule:evenodd;clip-rule:evenodd;fill:#fefffe;enable-background:new"/><path class="st8" d="M998.7 76.9c1.3.5 1.5 1.3.6 2.5-.5-.7-.7-1.6-.6-2.5z"/><path class="st9" d="M.1 78.2c1.4 46.1 1.7 92.4.6 138.9-.6-46.3-.8-92.6-.6-138.9z"/><path d="M101.8 78.2c.9 1.1 2.1 1.5 3.7 1.2 7.6 3.1 13.8 8 18.6 14.9 0 .8.4 1.2 1.2 1.2 4.2 8.6 5.9 17.7 5 27.3-1.1.9-1.5 2.1-1.2 3.7-1.1.9-1.5 2.1-1.2 3.7-1 .4-1.5 1.3-1.2 2.5-1 .4-1.5 1.3-1.2 2.5-.8 0-1.2.4-1.2 1.2-.8 0-1.2.4-1.2 1.2-1 .4-1.5 1.3-1.2 2.5-.8 0-1.2.4-1.2 1.2-.8 0-1.2.4-1.2 1.2-2.8.8-4.9 2.4-6.2 5-1.2-.2-2.1.2-2.5 1.2-1.2-.2-2.1.2-2.5 1.2-1.2-.2-2.1.2-2.5 1.2-2-.3-3.6.1-5 1.2-14.9.4-14.9.8 0 1.2-2.2 1-4.7 1.6-7.4 1.9 2.5 3.6 4.2 7.5 5 11.8-1.7.8-1.7 1.7 0 2.5-.2 1.2.2 2.1 1.2 2.5-.2 1.2.2 2.1 1.2 2.5-.2 1.2.2 2.1 1.2 2.5-.2 1.2.2 2.1 1.2 2.5-.2 1.2.2 2.1 1.2 2.5-.2 1.2.2 2.1 1.2 2.5-.2 1.2.2 2.1 1.2 2.5-.2 1.2.2 2.1 1.2 2.5-.2 1.2.2 2.1 1.2 2.5-.2 1.2.2 2.1 1.2 2.5-.2 1.2.2 2.1 1.2 2.5-.2 1.2.2 2.1 1.2 2.5-.2 1.2.2 2.1 1.2 2.5-.2 1.2.2 2.1 1.2 2.5-.2 1.2.2 2.1 1.2 2.5-.2 1.2.2 2.1 1.2 2.5-.2 1.2.2 2.1 1.2 2.5-.2 1.2.2 2.1 1.2 2.5-.2 1.2.2 2.1 1.2 2.5.4 3.3.8 3.3 1.2 0 1 5 3.1 9.9 6.2 14.9-.2 1.2.2 2.1 1.2 2.5 1 3.7 2.7 7 5 9.9-.2 1.2.2 2.1 1.2 2.5-.1 1.2.3 2.3 1.2 3.1-8.3.6-16.5.8-24.8.6-15.1-31.8-30.8-63.2-47.1-94.3v-3.7h-31c.6-7.3.6-14.7 0-22.3 21.5.2 43 0 64.5-.6 1.1-.3 2-1 2.5-1.9.8 0 1.2-.4 1.2-1.2.8 0 1.2-.4 1.2-1.2.8 0 1.2-.4 1.2-1.2 2.4-4.6 3-9.5 1.9-14.9-1.7-3.6-4.4-6.1-8.1-7.4-.9-1.1-2.1-1.5-3.7-1.2-23.8-1.2-47.8-1.6-72-1.2v119.1H1.9V78.5c33.7-.3 66.8-.3 99.9-.3zm-67 75.6v-1.2h31v3.7h-1.2c-9.4-2.4-19.4-3.3-29.8-2.5z" style="opacity:.876;fill-rule:evenodd;clip-rule:evenodd;fill:#fefffe;enable-background:new"/><path d="M197.3 78.2h18.6c6.6 1.7 13.2 3.7 19.8 6.2 0 .8.4 1.2 1.2 1.2 7.3 4 13.5 9.4 18.6 16.1 0 .8.4 1.2 1.2 1.2 6.9 9.8 11 20.6 12.4 32.3v9.9c-1.2 2.6-1.6 5.5-1.2 8.7-1.2 1.3-1.6 3-1.2 5-1 .4-1.5 1.3-1.2 2.5-1.1.9-1.5 2.1-1.2 3.7-1 .4-1.5 1.3-1.2 2.5-1 .4-1.5 1.3-1.2 2.5-1 .4-1.5 1.3-1.2 2.5-.8 0-1.2.4-1.2 1.2-1 .4-1.5 1.3-1.2 2.5-.8 0-1.2.4-1.2 1.2-2.5 1.3-4.2 3.4-5 6.2-.8 0-1.2.4-1.2 1.2-.8 0-1.2.4-1.2 1.2-.8 0-1.2.4-1.2 1.2-1.2-.2-2.1.2-2.5 1.2-.8 0-1.2.4-1.2 1.2-.8 0-1.2.4-1.2 1.2-1.2-.2-2.1.2-2.5 1.2-.8 0-1.2.4-1.2 1.2-1.2-.2-2.1.2-2.5 1.2-1.2-.2-2.1.2-2.5 1.2-1.2-.2-2.1.2-2.5 1.2-1.2-.2-2.1.2-2.5 1.2-1.6-.3-2.8.1-3.7 1.2-1.6-.3-2.8.1-3.7 1.2-11.7 1.8-23.2 1.4-34.7-1.2-.4-1-1.3-1.5-2.5-1.2-4.1-2-8.2-4.1-12.4-6.2 0-.8-.4-1.2-1.2-1.2-1.6-1.2-3.3-2.5-5-3.7 0-.8-.4-1.2-1.2-1.2 0-.8-.4-1.2-1.2-1.2 0-.8-.4-1.2-1.2-1.2 0-.8-.4-1.2-1.2-1.2 0-.8-.4-1.2-1.2-1.2-3.9-4.7-7.2-9.6-9.9-14.9-1.2-3.4-2.5-6.7-3.7-9.9.3-2-.1-3.6-1.2-5v-22.3c1.2-1.3 1.6-3 1.2-5 2.7-8.5 6.9-16.4 12.4-23.6.8 0 1.2-.4 1.2-1.2 2.3-1.8 4.4-3.9 6.2-6.2.8 0 1.2-.4 1.2-1.2 8.5-6.4 18.4-11 29.2-13.4z" style="opacity:.851;fill-rule:evenodd;clip-rule:evenodd;fill:#fefdfd;enable-background:new"/><path class="st12" d="M601.7 78.2c1.4 40.7 1.7 81.7.6 122.8-.6-41-.8-81.9-.6-122.8z"/><path d="M754.3 117.9c-.2 1.2.2 2.1 1.2 2.5 1.9 8.6 2.7 17.3 2.5 26.1-1.2 2.6-1.6 5.5-1.2 8.7-1.1.9-1.5 2.1-1.2 3.7-1 .4-1.5 1.3-1.2 2.5-1 .4-1.5 1.3-1.2 2.5-1.1.9-1.5 2.1-1.2 3.7-1 .4-1.5 1.3-1.2 2.5-.8 0-1.2.4-1.2 1.2-1 .4-1.5 1.3-1.2 2.5-.8 0-1.2.4-1.2 1.2-1 .4-1.5 1.3-1.2 2.5-.8 0-1.2.4-1.2 1.2-.8 0-1.2.4-1.2 1.2-.8 0-1.2.4-1.2 1.2-.8 0-1.2.4-1.2 1.2-.8 0-1.2.4-1.2 1.2-.8 0-1.2.4-1.2 1.2-.8 0-1.2.4-1.2 1.2-.8 0-1.2.4-1.2 1.2-.8 0-1.2.4-1.2 1.2-1.2-.2-2.1.2-2.5 1.2-.8 0-1.2.4-1.2 1.2-1.2-.2-2.1.2-2.5 1.2-.8 0-1.2.4-1.2 1.2-1.2-.2-2.1.2-2.5 1.2-1.2-.2-2.1.2-2.5 1.2-1.2-.2-2.1.2-2.5 1.2-1.6-.3-2.8.1-3.7 1.2-1.6-.3-2.8.1-3.7 1.2-2-.3-3.6.1-5 1.2-25.2 1.1-50 1.5-74.4 1.2-7.6-.5-15-.5-22.3 0-.4-1.7-.8-1.7-1.2 0-1.3 0-2.6-.5-3.7-1.2-1.2-40.9-1.7-81.9-1.2-122.8 36-.6 72 0 107.9 1.9 19 7 33 19.6 41.3 38.5zm-55.8-17.4h-70.7v78.2h72c-24.2 1.2-48.6 1.6-73.2 1.2V99.3c24.2-.5 48.1-.1 71.9 1.2zm7.5 2.5c2.1 1.5 4.6 2.4 7.4 2.5.6 1.7 1.8 2.6 3.7 2.5 1 1.1 2.2 1.9 3.7 2.5 0 .8.4 1.2 1.2 1.2 0 .8.4 1.2 1.2 1.2 0 .8.4 1.2 1.2 1.2 0 .8.4 1.2 1.2 1.2.7 2.1 1.9 3.8 3.7 5-.2 1.2.2 2.1 1.2 2.5.1 2.8.9 5.3 2.5 7.4v17.4c-1.1 3.7-2.3 7.4-3.7 11.2-1.7.6-2.6 1.8-2.5 3.7-.8 0-1.2.4-1.2 1.2-2.1 1.2-3.7 2.9-5 5-4.7 3.2-9.7 5.7-14.9 7.4-25.6 1.2-51.3 1.6-76.9 1.2v-75.7c25.9-.3 51.5.1 77.2 1.4zm14.8 7.4v-1.2c3.3.8 5.4 2.9 6.2 6.2h-1.2c-.8 0-1.2-.4-1.2-1.2-.8 0-1.2-.4-1.2-1.2-.8 0-1.2-.4-1.2-1.2-.9-.2-1.4-.6-1.4-1.4z" style="opacity:.835;fill-rule:evenodd;clip-rule:evenodd;fill:#fefffe;enable-background:new"/><path class="st3" d="M873.4 80.6c-1.2-.2-2.1.2-2.5 1.2h-3.7c1.9-2.2 3.9-2.6 6.2-1.2z"/><path class="st1" d="M593.1 80.6h1.2c.2 1.2-.2 2.1-1.2 2.5v-2.5z"/><path class="st3" d="M997.5 83.1c-.2-.9 0-1.7.6-2.5.9 1.2.7 2-.6 2.5zm-130.3-1.2v1.2c-.8 0-1.2.4-1.2 1.2-2.9-.9-2.4-1.8 1.2-2.4z"/><path class="st1" d="M235.8 84.4c1.2-1.5 2.5-1.3 3.7.6-.7.6-1.6.8-2.5.6-.8 0-1.2-.4-1.2-1.2z"/><path class="st3" d="M591.8 83.1h1.2c.2 1.2-.2 2.1-1.2 2.5v-2.5z"/><path class="st1" d="M996.2 83.1h1.2c.2 1.2-.2 2.1-1.2 2.5v-2.5zm-405.6 2.5h1.2c.2 1.2-.2 2.1-1.2 2.5v-2.5z"/><path class="st6" d="M995 85.6h1.2c-.2 2.1-1 3.7-2.5 5v-3.7c.9-.1 1.3-.5 1.3-1.3z"/><path class="st1" d="M589.3 88.1h1.2c.2 1.2-.2 2.1-1.2 2.5v-2.5z"/><path class="st12" d="M167.6 91.8c-.8 0-1.2.4-1.2 1.2-3.1-.3-3.1-1.1 0-2.5.7.2 1.1.6 1.2 1.3z"/><path class="st1" d="M588.1 90.6h1.2c.2 1.2-.2 2.1-1.2 2.5v-2.5zm404.4 0h1.2c-.2.8-.6.8-1.2 0z"/><path class="st3" d="M125.4 95.5c-.8 0-1.2-.4-1.2-1.2.3-3.1 1.1-3.1 2.5 0-.2.7-.7 1.1-1.3 1.2z"/><path class="st1" d="M586.9 93h1.2c.2 1.2-.2 2.1-1.2 2.5V93z"/><path class="st14" d="M852.3 94.3c-.8 0-1.2.4-1.2 1.2-.8 0-1.2.4-1.2 1.2-1.3-.5-1.5-1.3-.6-2.5 1.1-1.5 2.2-1.5 3 .1z"/><path class="st8" d="M991.3 93c1.7.8 1.7 1.7 0 2.5V93z"/><path class="st1" d="M585.6 95.5h1.2c.2 1.2-.2 2.1-1.2 2.5v-2.5z"/><path class="st6" d="M990 95.5h1.2c.2 1.2-.2 2.1-1.2 2.5v-2.5z"/><path class="st3" d="M160.1 99.2c-.8 0-1.2.4-1.2 1.2-1.5-1.2-1.3-2.5.6-3.7.6.8.8 1.6.6 2.5z"/><path class="st12" d="M557.1 101.7c-1 .4-1.5 1.3-1.2 2.5-1 .4-1.5 1.3-1.2 2.5-1 .4-1.5 1.3-1.2 2.5-1 .4-1.5 1.3-1.2 2.5-1 .4-1.5 1.3-1.2 2.5-1 .4-1.5 1.3-1.2 2.5-1 .4-1.5 1.3-1.2 2.5-1 .4-1.5 1.3-1.2 2.5-1 .4-1.5 1.3-1.2 2.5-1.3-.9-1.5-2.2-.6-3.7 3.7-7.4 7.4-14.9 11.2-22.3.2 1 .4 2.2.2 3.5z"/><path class="st1" d="M584.4 98h1.2c.2 1.2-.2 2.1-1.2 2.5V98z"/><path class="st6" d="M988.8 98h1.2c-.2.8-.6.8-1.2 0z"/><path class="st3" d="M256.9 103c-.8 0-1.2-.4-1.2-1.2.3-3.1 1.1-3.1 2.5 0-.2.7-.7 1.1-1.3 1.2z"/><path class="st6" d="M987.6 99.2h1.2c-.2.9-.6.9-1.2 0z"/><path class="st15" d="M95.6 100.5c.9 1.1 2.1 1.5 3.7 1.2-23.7.1-47.7.1-72 0-.4 38-.4 75.4 0 112.3-.2 1.3-.8 2.3-1.9 3.1-.6-38.9-.8-77.7-.6-116.6h70.8z"/><path class="st1" d="M583.1 100.5h1.2c.2 1.2-.2 2.1-1.2 2.5v-2.5zm115.4 0c2.2 1.2 4.7 1.6 7.4 1.2v1.2c-25.6-1.2-51.3-1.7-76.9-1.2v75.7c25.7.3 51.3-.1 76.9-1.2v1.2c-2.4-.4-4.4.1-6.2 1.2h-72v-78.2c23.7.1 47.2.1 70.8.1z"/><path class="st4" d="M844.9 103c-.8 0-1.2.4-1.2 1.2-1.5-1.2-1.3-2.5.6-3.7.5.7.8 1.5.6 2.5z"/><path class="st16" d="M888.3 101.7v-1.2h99.2c-32.8 1.2-65.9 1.6-99.2 1.2z"/><path class="st1" d="M883.4 103v-1.2h5c-1.4 1.1-3.1 1.5-5 1.2zm-301.5 0h1.2c.2 1.2-.2 2.1-1.2 2.5V103zm297.7 1.2V103h3.7c-.8 1.1-2.1 1.5-3.7 1.2z"/><path class="st17" d="M877.1 105.4v-1.2h2.5c-.4 1-1.2 1.5-2.5 1.2z"/><path class="st1" d="M580.7 105.4h1.2c.2 1.2-.2 2.1-1.2 2.5v-2.5z"/><path class="st15" d="M713.4 105.4h2.5c0 .8.4 1.2 1.2 1.2v1.2c-1.9.2-3.1-.6-3.7-2.4z"/><path class="st17" d="M874.7 106.7v-1.2h2.5c-.5 1-1.3 1.4-2.5 1.2z"/><path class="st1" d="M872.2 106.7h2.5c-.9 2.3-2.1 2.7-3.7 1.2.8 0 1.2-.4 1.2-1.2z"/><path class="st14" d="M131.6 122.8c-.2-5 0-9.9.6-14.9 1 5.2.8 10.2-.6 14.9z"/><path d="M211 179.9h-11.2c.2-1.3 0-2.5-.6-3.7-.9 1.1-1.9 1.9-3.1 2.5-21.9-7.3-31.6-22.6-29.2-45.9 7.7-25.9 24.9-36.4 51.5-31.6 24.2 9.7 33.1 27.2 26.7 52.7-6.2 15.4-17.6 24.1-34.1 26z" style="fill-rule:evenodd;clip-rule:evenodd;fill:#e84481"/><path class="st1" d="M579.4 107.9h1.2c.2 1.2-.2 2.1-1.2 2.5v-2.5zm-1.2 2.5h1.2c.2 1.2-.2 2.1-1.2 2.5v-2.5z"/><path class="st17" d="M576.9 112.9h1.2c.2 1.2-.2 2.1-1.2 2.5v-2.5z"/><path class="st4" d="M755.6 120.3c.2-1.2-.2-2.1-1.2-2.5-.3-2.3.1-3.1 1.2-2.5 1.5 1.9 1.5 3.6 0 5z"/><path class="st17" d="M575.7 115.4h1.2c.2 1.2-.2 2.1-1.2 2.5v-2.5z"/><path class="st19" d="M863.5 115.4c1.7.8 1.7.8 0 0z"/><path class="st17" d="M862.3 116.6h1.2c.2 1.2-.2 2.1-1.2 2.5v-2.5z"/><path class="st1" d="M574.5 117.9h1.2c.2 1.2-.2 2.1-1.2 2.5v-2.5z"/><path class="st3" d="M146.5 124.1c-1.2 1.3-1.6 3-1.2 5-1.4-3.2-1.2-6.5.6-9.9.6 1.5.8 3.2.6 4.9z"/><path class="st17" d="M861 119.1h1.2c.2 1.2-.2 2.1-1.2 2.5v-2.5z"/><path class="st1" d="M105.5 124.1c-.8 0-1.2.4-1.2 1.2h-1.2c.3-1.8.9-3.4 1.9-5 .5 1.2.7 2.5.5 3.8z"/><path class="st17" d="M573.2 120.3h1.2c.2 1.2-.2 2.1-1.2 2.5v-2.5zm286.6 1.3h1.2c.2 1.2-.2 2.1-1.2 2.5v-2.5z"/><path class="st1" d="M130.3 122.8h1.2c.3 3-.5 5.5-2.5 7.4v-3.7c1.2-.8 1.6-2.1 1.3-3.7z"/><path class="st17" d="M572 122.8h1.2c.2 1.2-.2 2.1-1.2 2.5v-2.5z"/><path class="st1" d="M858.5 124.1h1.2c-.2 1.3 0 2.5.6 3.7 1.6-1.6 3-1.6 4.3 0-1.2-.2-2.1.2-2.5 1.2-1.2-.2-2.1.2-2.5 1.2-1.7 0-2.5-.8-2.5-2.5 1.3-.8 1.7-2 1.4-3.6z"/><path class="st16" d="M103 125.3v1.2c-.8 0-1.2.4-1.2 1.2-2.8-.9-2.4-1.7 1.2-2.4z"/><path class="st17" d="M570.7 125.3h1.2c.2 1.2-.2 2.1-1.2 2.5v-2.5z"/><path class="st12" d="M269.3 153.8v-8.7c1.7-3.3 1.7-6.6 0-9.9-.2-2.9 0-5.8.6-8.7 2.6 9.4 2.4 18.5-.6 27.3z"/><path class="st17" d="M569.5 127.8h1.2c.2 1.2-.2 2.1-1.2 2.5v-2.5zm-441.6 2.5h1.2c.2 1.2-.2 2.1-1.2 2.5v-2.5zm440.4 0h1.2c.2 1.2-.2 2.1-1.2 2.5v-2.5z"/><path class="st3" d="M32.3 131.5c1.4 3.9 1.6 8 .6 12.4-.6-4.1-.8-8.2-.6-12.4zm727 14.9c-.2-5 0-9.9.6-14.9 1 5.2.8 10.2-.6 14.9zm-632.7-13.7h1.2c.2 1.2-.2 2.1-1.2 2.5v-2.5z"/><path class="st17" d="M567 132.7h1.2c.2 1.2-.2 2.1-1.2 2.5v-2.5z"/><path class="st12" d="M983.8 134c.5-1.3 1.3-1.5 2.5-.6l4.3 4.3c.9 1.2.7 2-.6 2.5-.8 0-1.2-.4-1.2-1.2-.8 0-1.2-.4-1.2-1.2-.8 0-1.2-.4-1.2-1.2-.8 0-1.2-.4-1.2-1.2-1-.2-1.4-.6-1.4-1.4z"/><path class="st20" d="M125.4 135.2h1.2c-.2.9-.6.9-1.2 0z"/><path class="st17" d="M565.8 135.2h1.2c.2 1.2-.2 2.1-1.2 2.5v-2.5z"/><path class="st3" d="M124.1 136.5h1.2c.1 1.9-.7 3.1-2.5 3.7v-2.5c.9 0 1.3-.4 1.3-1.2z"/><path class="st17" d="M564.5 137.7h1.2c.2 1.2-.2 2.1-1.2 2.5v-2.5z"/><path class="st9" d="M121.7 140.2h1.2c-.2.8-.7.8-1.2 0z"/><path class="st17" d="M563.3 140.2h1.2c.2 1.2-.2 2.1-1.2 2.5v-2.5z"/><path class="st20" d="M120.4 141.4h1.2c-.2.9-.6.9-1.2 0z"/><path class="st3" d="M995 145.1h-1.2c-.8 0-1.2-.4-1.2-1.2.9-2.8 1.7-2.4 2.4 1.2z"/><path class="st20" d="M119.2 142.7h1.2c-.2.8-.6.8-1.2 0z"/><path class="st17" d="M562 142.7h1.2c.2 1.2-.2 2.1-1.2 2.5v-2.5z"/><path class="st12" d="M434.3 147.6c-1 .4-1.5 1.3-1.2 2.5-1 .4-1.5 1.3-1.2 2.5-1 .4-1.5 1.3-1.2 2.5-1 .4-1.5 1.3-1.2 2.5-1 .4-1.5 1.3-1.2 2.5-1 .4-1.5 1.3-1.2 2.5-1 .4-1.5 1.3-1.2 2.5-1 .4-1.5 1.3-1.2 2.5-1 .4-1.5 1.3-1.2 2.5-1 .4-1.5 1.3-1.2 2.5-1 .4-1.5 1.3-1.2 2.5-1 .4-1.5 1.3-1.2 2.5-1.3-.9-1.5-2.2-.6-3.7 5-9.9 9.9-19.8 14.9-29.8 0 1 .3 2.2.1 3.5z"/><path class="st17" d="M560.8 145.1h1.2c.2 1.2-.2 2.1-1.2 2.5v-2.5z"/><path class="st2" d="M995 145.1c1.7.8 1.7 1.7 0 2.5v-2.5z"/><path class="st1" d="M32.3 146.4c1.4 1.8 1.6 3.9.6 6.2-.6-2-.8-4.1-.6-6.2z"/><path class="st6" d="M758.1 146.4h1.2c-.4 9.9-.8 9.9-1.2 0z"/><path class="st20" d="M113 147.6c1.6.9 1.6.9 0 0z"/><path class="st9" d="M559.6 147.6h1.2c.2 1.2-.2 2.1-1.2 2.5v-2.5z"/><path class="st1" d="M110.5 150.1v-1.2h2.5c-.5 1-1.3 1.4-2.5 1.2zm203.4 6.2c.2-1.2-.2-2.1-1.2-2.5.2-6.3 1.1-6.1 2.5.6-.1 1-.5 1.6-1.3 1.9z"/><path class="st6" d="M874.7 148.9h88.1v1.2c-30.6-.4-61.2 0-91.8 1.2v-1.2c1.5.3 2.8-.1 3.7-1.2z"/><path class="st2" d="M996.2 148.9c1.7.8 1.7.8 0 0z"/><path class="st17" d="M108 151.3v-1.2h2.5c-.4 1-1.3 1.5-2.5 1.2z"/><path class="st4" d="M385.9 155.1c-1 .4-1.5 1.3-1.2 2.5-.7-.3-1.2-.9-1.2-1.9 1.3-6.7 2.1-6.9 2.4-.6z"/><path class="st9" d="M558.3 150.1h1.2c.2 1.2-.2 2.1-1.2 2.5v-2.5zm-452.8 2.5v-1.2h2.5c-.4 1-1.2 1.4-2.5 1.2z"/><path class="st3" d="M145.2 151.3c-.3 2 .1 3.6 1.2 5 .1 5.4-.6 5.9-1.9 1.2-.9-2.3-.7-4.4.7-6.2z"/><path class="st17" d="M410.7 151.3h1.2c.3 2-.1 3.6-1.2 5v-5z"/><path class="st3" d="M997.5 151.3c1.3.5 1.5 1.3.6 2.5-.6-.7-.8-1.5-.6-2.5z"/><path class="st1" d="M100.6 153.8v-1.2h5c-1.4 1.1-3.1 1.6-5 1.2z"/><path class="st9" d="M557.1 152.6h1.2c.2 1.2-.2 2.1-1.2 2.5v-2.5z"/><path d="M34.8 153.8c10.4-.8 20.3 0 29.8 2.5-10.1-.8-20-1.6-29.8-2.5z" style="opacity:1.800000e-02;fill-rule:evenodd;clip-rule:evenodd;fill:#fefffe;enable-background:new"/><path class="st14" d="M268 153.8h1.2c.3 2-.1 3.6-1.2 5v-5z"/><path class="st4" d="M289.1 155.1c-.3 1.6.1 2.8 1.2 3.7v3.7c-2.4-2.2-2.8-4.7-1.2-7.4z"/><path class="st9" d="M555.8 155.1h1.2c.2 1.2-.2 2.1-1.2 2.5v-2.5z"/><path class="st3" d="M756.8 155.1c1.7 1.2 1.7 2.5 0 3.7v-3.7zm240.7 21.1v-5c1-5.1 1.6-10.5 1.9-16.1l.6 8.7c.2 4.5-.6 8.6-2.5 12.4z"/><path class="st4" d="M409.5 156.3h1.2c.3 3-.5 5.5-2.5 7.4V160c1.1-.8 1.6-2.1 1.3-3.7z"/><path class="st17" d="M554.6 157.6h1.2c.2 1.2-.2 2.1-1.2 2.5v-2.5z"/><path class="st12" d="M972.7 157.6h1.2c-.3 1.6.1 2.8 1.2 3.7v5c-1.1.9-1.5 2.1-1.2 3.7h-1.2c1.6-4.2 1.6-8.3 0-12.4zm-705.9 1.2h1.2c.1 2.5-.7 4.6-2.5 6.2v-3.7c1.1-.5 1.5-1.3 1.3-2.5z"/><path class="st3" d="M755.6 158.8h1.2c-.3 3.4-1.5 6.3-3.7 8.7v-3.7c1-.4 1.5-1.3 1.2-2.5 1.1-.5 1.5-1.3 1.3-2.5z"/><path class="st17" d="M553.4 160h1.2c.2 1.2-.2 2.1-1.2 2.5V160z"/><path class="st12" d="M290.4 162.5h1.2c-.2 1.2.2 2.1 1.2 2.5.2 1.3 0 2.5-.6 3.7-1.2-1.9-1.8-3.9-1.8-6.2z"/><path class="st17" d="M552.1 162.5h1.2c.2 1.2-.2 2.1-1.2 2.5v-2.5z"/><path class="st12" d="M837.5 162.5c-.2 1.2.2 2.1 1.2 2.5.1 2.3-.5 2.7-1.9 1.2-.9-1.5-.7-2.8.7-3.7zm27.2 0c2.5 1.7 4.5 3.7 6.2 6.2h-2.5c0-.8-.4-1.2-1.2-1.2 0-.8-.4-1.2-1.2-1.2 0-.8-.4-1.2-1.2-1.2-.1-.9-.1-1.8-.1-2.6z"/><path class="st17" d="M407 163.8h1.2c.2 1.2-.2 2.1-1.2 2.5v-2.5z"/><path class="st12" d="M725.8 163.8v2.5c-.8 0-1.2.4-1.2 1.2-.8 0-1.2.4-1.2 1.2h-2.5c1.2-2.1 2.8-3.7 4.9-4.9z"/><path class="st1" d="M264.3 165h1.2c.2 1.2-.2 2.1-1.2 2.5V165z"/><path class="st17" d="M550.9 165h1.2c.2 1.2-.2 2.1-1.2 2.5V165z"/><path class="st1" d="M150.2 166.2c.2.9 0 1.7-.6 2.5-.9-1.1-.7-2 .6-2.5zm255.5 0h1.2c.2 1.2-.2 2.1-1.2 2.5v-2.5z"/><path class="st12" d="M98.1 167.5c5.4 7.5 9.6 15.8 12.4 24.8h-1.2c.2-1.2-.2-2.1-1.2-2.5.2-1.2-.2-2.1-1.2-2.5.2-1.2-.2-2.1-1.2-2.5.2-1.2-.2-2.1-1.2-2.5.2-1.2-.2-2.1-1.2-2.5.2-1.2-.2-2.1-1.2-2.5.2-1.2-.2-2.1-1.2-2.5.2-1.2-.2-2.1-1.2-2.5.2-1.2-.2-2.1-1.2-2.5-.4-.7-.4-1.5-.4-2.3z"/><path class="st1" d="M263.1 167.5h1.2c.2 1.2-.2 2.1-1.2 2.5v-2.5z"/><path class="st17" d="M549.6 167.5h1.2c.2 1.2-.2 2.1-1.2 2.5v-2.5z"/><path class="st3" d="M751.9 167.5h1.2c.2 1.2-.2 2.1-1.2 2.5v-2.5z"/><path class="st17" d="M323.9 170c1.2-1.5 2.5-1.3 3.7.6-.7.6-1.6.8-2.5.6-.8 0-1.2-.4-1.2-1.2z"/><path class="st1" d="M404.5 168.7h1.2c.2 1.2-.2 2.1-1.2 2.5v-2.5zM261.8 170h1.2c.2 1.2-.2 2.1-1.2 2.5V170z"/><path class="st16" d="M521.1 173.7c-.8-.4-1.7-.8-2.5-1.2 1-2.9 1.8-2.5 2.5 1.2z"/><path class="st17" d="M548.4 170h1.2c.2 1.2-.2 2.1-1.2 2.5V170z"/><path class="st9" d="M750.6 170h1.2c-.2.8-.6.8-1.2 0z"/><path class="st1" d="M403.3 171.2h1.2c.2 1.2-.2 2.1-1.2 2.5v-2.5z"/><path class="st3" d="M749.4 171.2h1.2c.2 1.2-.2 2.1-1.2 2.5v-2.5zm125.3 1.2v-1.2c2.1.2 3.7 1 5 2.5H876c-.1-.9-.5-1.3-1.3-1.3z"/><path class="st9" d="M260.6 172.4h1.2c-.2.9-.6.9-1.2 0z"/><path class="st17" d="M547.2 172.4h1.2c.2 1.2-.2 2.1-1.2 2.5v-2.5z"/><path class="st1" d="M259.4 173.7h1.2c.2 1.2-.2 2.1-1.2 2.5v-2.5z"/><path class="st9" d="M402 173.7h1.2c-.2.8-.6.8-1.2 0z"/><path class="st20" d="M748.1 173.7h1.2c-.2.8-.6.8-1.2 0z"/><path class="st3" d="M843.7 173.7c.8 0 1.2.4 1.2 1.2-.3 3.1-1.1 3.1-2.5 0 .2-.7.6-1.1 1.3-1.2z"/><path class="st4" d="M400.8 174.9h1.2c.1 1.9-.7 3.1-2.5 3.7v-2.5c.9.1 1.3-.4 1.3-1.2z"/><path class="st17" d="M545.9 174.9h1.2c.2 1.2-.2 2.1-1.2 2.5v-2.5z"/><path class="st1" d="M746.9 174.9h1.2c.2 1.2-.2 2.1-1.2 2.5v-2.5zm-488.8 1.3h1.2c-.2.8-.6.8-1.2 0z"/><path class="st17" d="M337.5 177.4h23.6c-2-.3-3.6.1-5 1.2h-13.6c-1.4-1.1-3-1.5-5-1.2z"/><path class="st14" d="M996.2 176.2h1.2c.3 1.6-.1 2.8-1.2 3.7v-3.7z"/><path class="st20" d="M256.9 177.4h1.2c-.2.8-.6.8-1.2 0z"/><path class="st17" d="M544.7 177.4h1.2c.2 1.2-.2 2.1-1.2 2.5v-2.5z"/><path class="st9" d="M745.6 177.4h1.2c-.1.8-.6.8-1.2 0z"/><path class="st20" d="M398.3 178.6h1.2c-.2.9-.6.9-1.2 0zm346.1 0h1.2c-.2.9-.6.9-1.2 0z"/><path d="M211 179.9c-1.8.8-3.9 1.2-6.2 1.2-3.4.2-6.2-.6-8.7-2.5 1.2-.6 2.2-1.4 3.1-2.5.6 1.2.8 2.4.6 3.7 3.7.1 7.4.1 11.2.1z" style="opacity:.957;fill-rule:evenodd;clip-rule:evenodd;fill:#ef8daa;enable-background:new"/><path class="st19" d="M397.1 179.9h1.2c-.2.8-.6.8-1.2 0z"/><path class="st17" d="M543.4 179.9h1.2c.2 1.2-.2 2.1-1.2 2.5v-2.5z"/><path class="st19" d="M743.2 179.9h1.2c-.2.8-.6.8-1.2 0z"/><path class="st4" d="M848.6 179.9c.8 0 1.2.4 1.2 1.2.8 0 1.2.4 1.2 1.2.8 0 1.2.4 1.2 1.2.8 0 1.2.4 1.2 1.2-2.7.8-4.8-.5-6.2-3.7.3-.6.7-1 1.4-1.1z"/><path class="st3" d="M995 179.9h1.2c.2 1.2-.2 2.1-1.2 2.5v-2.5z"/><path class="st8" d="M160.1 181.1c.8 0 1.2.4 1.2 1.2.8 0 1.2.4 1.2 1.2.8 0 1.2.4 1.2 1.2.8 0 1.2.4 1.2 1.2.8 0 1.2.4 1.2 1.2-.5 1.3-1.3 1.5-2.5.6l-4.3-4.3c-.7-1-.5-1.8.8-2.3z"/><path class="st20" d="M395.8 181.1h1.2c-.2.9-.6.9-1.2 0zm346.1 0h1.2c-.2.9-.6.9-1.2 0z"/><path class="st4" d="M394.6 182.4h1.2c-.4 2.9-2.1 4.5-5 5v-1.2c.8 0 1.2-.4 1.2-1.2.8 0 1.2-.4 1.2-1.2 1-.2 1.4-.6 1.4-1.4z"/><path class="st17" d="M542.2 182.4h1.2c.2 1.2-.2 2.1-1.2 2.5v-2.5z"/><path class="st9" d="M740.7 182.4h1.2c-.2.8-.6.8-1.2 0z"/><path class="st6" d="M993.8 182.4h1.2c-.2.8-.6.8-1.2 0z"/><path class="st9" d="M251.9 183.6c1.7.8 1.7.8 0 0z"/><path class="st20" d="M739.4 183.6h1.2c-.1.8-.6.8-1.2 0z"/><path class="st3" d="M992.5 183.6h1.2c.2 1.2-.2 2.1-1.2 2.5v-2.5z"/><path class="st9" d="M250.7 184.8h1.2c-.2.9-.6.9-1.2 0z"/><path d="M507.5 201h-74.4c11.5-25.5 23.7-50.7 36.6-75.7 13.9 24.6 26.5 49.9 37.8 75.7z" style="fill-rule:evenodd;clip-rule:evenodd;fill:#e74180"/><path class="st9" d="M541 184.8h1.2c.2 1.2-.2 2.1-1.2 2.5v-2.5zm197.2 0h1.2c-.2.9-.6.9-1.2 0zm-488.8 1.3h1.2c-.2.8-.6.8-1.2 0z"/><path class="st19" d="M737 186.1h1.2c-.2.8-.6.8-1.2 0z"/><path class="st9" d="M991.3 186.1h1.2c-.2.8-.6.8-1.2 0z"/><path class="st1" d="M248.2 187.3h1.2c-.2.9-.6.9-1.2 0z"/><path class="st19" d="M389.6 187.3h1.2c-.2.9-.6.9-1.2 0z"/><path class="st17" d="M539.7 187.3h1.2c.2 1.2-.2 2.1-1.2 2.5v-2.5z"/><path class="st20" d="M735.7 187.3h1.2c-.2.9-.6.9-1.2 0zm254.3 0h1.2c-.2.9-.6.9-1.2 0z"/><path class="st3" d="M245.7 188.6h2.5c-.6 1.7-1.8 2.6-3.7 2.5v-1.2c.8-.1 1.2-.5 1.2-1.3z"/><path class="st20" d="M388.4 188.6h1.2c-.2.8-.6.8-1.2 0z"/><path class="st9" d="M734.5 188.6h1.2c-.2.8-.6.8-1.2 0z"/><path class="st20" d="M988.8 188.6h1.2c-.2.8-.6.8-1.2 0z"/><path class="st9" d="M387.1 189.8h1.2c-.2.8-.6.8-1.2 0z"/><path class="st17" d="M538.5 189.8h1.2c.2 1.2-.2 2.1-1.2 2.5v-2.5z"/><path class="st3" d="M732 191v-1.2h2.5c-.4 1-1.3 1.5-2.5 1.2z"/><path class="st20" d="M987.6 189.8h1.2c-.2.8-.6.8-1.2 0z"/><path class="st3" d="M171.3 191c.8 0 1.2.4 1.2 1.2-1.2 1.5-2.5 1.3-3.7-.6.7-.5 1.6-.7 2.5-.6z"/><path class="st20" d="M243.2 191h1.2c-.2.9-.6.9-1.2 0z"/><path class="st1" d="M384.6 192.3v-1.2h2.5c-.4 1-1.2 1.4-2.5 1.2z"/><path class="st20" d="M730.8 191h1.2c-.2.9-.6.9-1.2 0zm255.5 0h1.2c-.2.9-.6.9-1.2 0z"/><path class="st12" d="M110.5 192.3c4.2 5.1 7.1 10.9 8.7 17.4H118c.2-1.2-.2-2.1-1.2-2.5.2-1.2-.2-2.1-1.2-2.5.2-1.2-.2-2.1-1.2-2.5.2-1.2-.2-2.1-1.2-2.5.2-1.2-.2-2.1-1.2-2.5.2-1.2-.2-2.1-1.2-2.5-.3-.8-.3-1.6-.3-2.4z"/><path class="st4" d="M240.7 192.3h2.5c-.6 1.7-1.8 2.6-3.7 2.5v-1.2c.8-.1 1.2-.5 1.2-1.3z"/><path class="st12" d="M316.4 192.3c.8 0 1.2.4 1.2 1.2-1.2 1.5-2.5 1.3-3.7-.6.8-.6 1.6-.8 2.5-.6z"/><path class="st20" d="M383.4 192.3h1.2c-.2.8-.6.8-1.2 0z"/><path class="st17" d="M537.2 192.3h1.2c.2 1.2-.2 2.1-1.2 2.5v-2.5z"/><path class="st4" d="M728.3 192.3h2.5c-.6 1.7-1.8 2.6-3.7 2.5v-1.2c.8-.1 1.2-.5 1.2-1.3z"/><path class="st9" d="M985.1 192.3h1.2c-.2.8-.6.8-1.2 0z"/><path class="st1" d="M380.9 194.8v-1.2h2.5c-.4 1-1.2 1.4-2.5 1.2zM237 196v-1.2h2.5c-.4 1-1.2 1.4-2.5 1.2z"/><path class="st4" d="M378.4 194.8h2.5c-.6 1.7-1.8 2.6-3.7 2.5v-1.2c.8-.1 1.2-.5 1.2-1.3z"/><path class="st17" d="M536 194.8h1.2c.2 1.2-.2 2.1-1.2 2.5v-2.5zm188.6 1.2v-1.2h2.5c-.5 1-1.3 1.4-2.5 1.2z"/><path class="st1" d="M234.5 197.2V196h2.5c-.4 1-1.2 1.5-2.5 1.2z"/><path class="st17" d="M722.1 197.2V196h2.5c-.5 1-1.3 1.5-2.5 1.2zm-490 1.3v-1.2h2.5c-.5 1-1.3 1.4-2.5 1.2z"/><path class="st3" d="M373.5 197.2h3.7c-1.6 1.8-3.7 2.6-6.2 2.5v-1.2c1.2.2 2.1-.2 2.5-1.3z"/><path class="st15" d="M408.2 199.7c-3 1.1-3.2.2-.6-2.5.6.8.8 1.6.6 2.5z"/><path class="st17" d="M534.8 197.2h1.2c-.4 3.4-.8 3.4-1.2 0z"/><path class="st1" d="M719.6 198.5v-1.2h2.5c-.4 1-1.3 1.4-2.5 1.2z"/><path class="st12" d="M873.4 197.2c.4 1 1.3 1.5 2.5 1.2v1.2c-2.2 0-4.3-.6-6.2-1.9 1.2-.4 2.4-.6 3.7-.5z"/><path class="st6" d="M977.6 198.5v-1.2c3.3.4 3.3.8 0 1.2z"/><path class="st12" d="M184.9 198.5c.4 1 1.3 1.5 2.5 1.2-2 1.4-4 1.2-6.2-.6 1.2-.6 2.4-.8 3.7-.6z"/><path class="st17" d="M229.6 199.7v-1.2h2.5c-.5 1-1.3 1.4-2.5 1.2z"/><path class="st12" d="M715.9 199.7v-1.2h3.7c-.9 1.1-2.1 1.5-3.7 1.2z"/><path class="st4" d="M975.2 198.5h2.5c-1 2-2.6 2.8-5 2.5v-1.2c1.2.1 2-.3 2.5-1.3z"/><path class="st1" d="M225.9 201v-1.2h3.7c-.9 1.1-2.1 1.5-3.7 1.2z"/><path class="st14" d="M367.3 201v-1.2h3.7c-.9 1.1-2.1 1.5-3.7 1.2z"/><path class="st1" d="M712.2 199.7h3.7c-5.7 3.1-11.9 4.4-18.6 3.7 3.3-.8 6.6-1.7 9.9-2.5 2 .4 3.6 0 5-1.2z"/><path d="M875.9 199.7h5c1.8 1.2 3.8 1.6 6.2 1.2 22.9 1 46.1 1.7 69.5 1.9-23.6.8-47.1.8-70.7 0-3.7-.3-7-1.4-10-3.1z" style="opacity:1.700000e-02;fill-rule:evenodd;clip-rule:evenodd;fill:#fefffe;enable-background:new"/><path class="st17" d="M222.1 201h3.7c-1.2 1.6-2.4 1.6-3.7 0z"/><path class="st12" d="M362.3 201h5c-7.4 3.1-15.3 4.2-23.6 3.1 4-.2 7.7-.8 11.2-1.9 2.7.4 5.2 0 7.4-1.2z"/><path class="st2" d="M532.3 201c1.6.8 1.6.8 0 0z"/><path class="st4" d="M967.7 201h5c-4.6 2.4-9.5 3-14.9 1.9 3.5-.3 6.8-.9 9.9-1.9z"/><path d="M532.3 202.2c-40.7 1.4-81.7 1.7-122.8.6 40.9-.6 81.8-.8 122.8-.6z" style="opacity:1.900000e-02;fill-rule:evenodd;clip-rule:evenodd;fill:#fdbfce;enable-background:new"/><path class="st2" d="M609.2 202.2h1.2c7.2 1.2 14.7 1.6 22.3 1.2-8.9 1.4-18 1.6-27.3.6 1.6-.2 2.8-.8 3.8-1.8zm23.6 1.3v-1.2c21.4 1 43 1.4 64.5 1.2-21.4 1.6-42.9 1.6-64.5 0z"/><path class="st4" d="M119.2 209.7c2.5 1.8 3.8 4.2 3.7 7.4h-1.2c.2-1.2-.2-2.1-1.2-2.5.2-1.2-.2-2.1-1.2-2.5-.1-.8-.1-1.6-.1-2.4z"/><path class="st2" d="M2.6 220.8c6.8-1.4 13.8-1.6 21.1-.6-7.1.6-14.1.8-21.1.6z"/><path class="st4" d="M130.3 234.5c.2-1.2-.2-2.1-1.2-2.5-.1-2.3.5-2.7 1.9-1.2.9 1.5.7 2.7-.7 3.7z"/><path class="st12" d="M137.8 246.9h-1.2c.2-1.2-.2-2.1-1.2-2.5-.2-.9 0-1.7.6-2.5 1.4 1.3 2 3 1.8 5z"/><path class="st9" d="M137.8 246.9c.8 0 1.2.4 1.2 1.2l-1.2-1.2z"/><path class="st8" d="M139 248.1c1.3.5 1.5 1.3.6 2.5-.5-.7-.7-1.6-.6-2.5z"/><path class="st2" d="M113 250.6v1.2c-.9-.6-.9-1 0-1.2z"/><path class="st17" d="M113 251.8c7.9-.2 15.7 0 23.6.6-8.1 1.1-16 .9-23.6-.6z"/></svg>